Coordinates
version=1
nRows=26
nColumns=24
inDegrees=yes

Units are S.I. units (second, meters, Newtons, ...)
Angles are in degrees.

endheader
time	pelvis_tilt	pelvis_list	pelvis_rotation	pelvis_tx	pelvis_ty	pelvis_tz	hip_flexion_r	hip_adduction_r	hip_rotation_r	knee_angle_r	ankle_angle_r	subtalar_angle_r	mtp_angle_r	hip_flexion_l	hip_adduction_l	hip_rotation_l	knee_angle_l	ankle_angle_l	subtalar_angle_l	mtp_angle_l	lumbar_extension	lumbar_bending	lumbar_rotation
      5.36500000	     35.60076985	     -0.14344718	      2.33597671	      0.58415831	      0.65432999	     -0.26253128	    -50.78600627	      5.08417257	     -2.27838713	    -12.21474396	     26.31754033	     14.84988577	      0.00000000	    -10.48640772	     -0.91503020	    -11.08216716	     -6.51110909	      7.87577162	     16.93442062	      0.00000000	    -61.86518173	      1.50520524	     -0.81137103
      5.37000000	     35.66573070	     -0.11616778	      2.10179027	      0.59022142	      0.65423830	     -0.26279735	    -51.07402749	      4.78428300	     -2.31620508	    -12.90762689	     25.89841470	     15.14564127	      0.00000000	    -10.73048344	     -0.78937514	    -11.15367052	     -6.84515187	      7.66133157	     17.21822175	      0.00000000	    -61.84003301	      1.28838804	     -0.75743827
      5.37500000	     35.73932131	     -0.07009110	      1.86985382	      0.59633291	      0.65421243	     -0.26305904	    -51.32223364	      4.46225193	     -2.35065362	    -13.69193038	     25.40180208	     15.46703671	      0.00000000	    -10.98240464	     -0.64478006	    -11.16780186	     -7.28755957	      7.41314642	     17.42647515	      0.00000000	    -61.81893464	      1.05132954	     -0.70647383
      5.38000000	     35.75677565	     -0.03040887	      1.70159320	      0.60244960	      0.65421377	     -0.26333288	    -51.44475899	      4.19428084	     -2.39361841	    -14.58130171	     24.77422936	     15.68554188	      0.00000000	    -11.13810070	     -0.52469203	    -11.02726129	     -7.86131225	      7.12236977	     17.54941415	      0.00000000	    -61.74649135	      0.86609064	     -0.72657503
      5.38500000	     35.85515190	      0.02880556	      1.42895960	      0.60866180	      0.65434060	     -0.26359465	    -51.60247234	      3.79349848	     -2.49671699	    -15.57249374	     24.13539095	     16.20725691	      0.00000000	    -11.44694566	     -0.34311992	    -10.90502871	     -8.41471194	      6.79472154	     17.57895415	      0.00000000	    -61.74036868	      0.58873634	     -0.63711037
      5.39000000	     35.90223321	      0.08751567	      1.23106953	      0.61486875	      0.65450158	     -0.26380725	    -51.63612526	      3.46917337	     -2.56759543	    -16.66376132	     23.30006672	     16.48603920	      0.00000000	    -11.66378485	     -0.19191234	    -10.67697249	     -9.07351259	      6.42937729	     17.62840322	      0.00000000	    -61.69099174	      0.35925197	     -0.66581855
      5.39500000	     35.97216157	      0.14289303	      1.01143296	      0.62110622	      0.65475972	     -0.26406134	    -51.62058631	      3.10120525	     -2.68811866	    -17.87106957	     22.35059309	     16.91912541	      0.00000000	    -11.93424122	     -0.01786643	    -10.38322393	     -9.72087899	      6.00331456	     17.51062377	      0.00000000	    -61.65814248	      0.12646456	     -0.64239649
      5.40000000	     36.09704936	      0.22106241	      0.74511038	      0.62739349	      0.65508233	     -0.26436350	    -51.59700203	      2.63903547	     -2.92189100	    -19.19170517	     21.40019448	     17.60835933	      0.00000000	    -12.28866162	      0.23094608	     -9.87704568	    -10.36427284	      5.61358909	     16.98652174	      0.00000000	    -61.66621054	     -0.16333451	     -0.54047171
      5.40500000	     36.20636796	      0.32253168	      0.54473749	      0.63368313	      0.65546285	     -0.26465974	    -51.48720062	      2.21344057	     -3.18718670	    -20.60458012	     20.21918629	     18.18772502	      0.00000000	    -12.61798658	      0.48890011	     -9.32700195	    -11.03056465	      5.20178389	     16.49724487	      0.00000000	    -61.66695526	     -0.41629769	     -0.53637997
      5.41000000	     36.30738328	      0.41970964	      0.36318555	      0.63996703	      0.65589726	     -0.26497637	    -51.28523506	      1.78713144	     -3.49991980	    -22.12748775	     18.88303008	     18.78560760	      0.00000000	    -12.93814709	      0.75378109	     -8.68584036	    -11.70691202	      4.81776105	     15.88184435	      0.00000000	    -61.66163497	     -0.65089417	     -0.53090898
      5.41500000	     36.40283718	      0.51733478	      0.20018169	      0.64625111	      0.65638119	     -0.26532931	    -50.99801898	      1.35004391	     -3.89060215	    -23.74882140	     17.38406743	     19.38882543	      0.00000000	    -13.25315777	      1.03328723	     -7.95222448	    -12.39073403	      4.48379507	     15.13056093	      0.00000000	    -61.65082960	     -0.86460095	     -0.54607949
      5.42000000	     36.49338618	      0.61777218	      0.06143020	      0.65253023	      0.65691020	     -0.26571604	    -50.62638457	      0.90692928	     -4.34106157	    -25.46250041	     15.70860333	     19.96537221	      0.00000000	    -13.56688036	      1.32492947	     -7.15903575	    -13.07302994	      4.21361629	     14.29734831	      0.00000000	    -61.63566123	     -1.05658365	     -0.57872360
      5.42500000	     36.58272736	      0.72645449	     -0.05062318	      0.65878722	      0.65747450	     -0.26614099	    -50.17330088	      0.45665472	     -4.83651827	    -27.26413804	     13.86521059	     20.49084372	      0.00000000	    -13.88184694	      1.63275580	     -6.32641363	    -13.75410666	      4.01992976	     13.38879347	      0.00000000	    -61.62531556	     -1.23008313	     -0.61130792
      5.43000000	     36.67130163	      0.84327381	     -0.13915756	      0.66502941	      0.65807135	     -0.26657646	    -49.64129166	      0.00197638	     -5.36062567	    -29.14540631	     11.84415892	     20.92295111	      0.00000000	    -14.21159454	      1.94867251	     -5.51196458	    -14.40886836	      3.91389353	     12.46927237	      0.00000000	    -61.61500395	     -1.39243230	     -0.64600838
      5.43500000	     36.75769468	      0.94937834	     -0.22329214	      0.67124161	      0.65869029	     -0.26706433	    -49.03344218	     -0.47529564	     -5.94173872	    -31.08827420	      9.69287024	     21.22746388	      0.00000000	    -14.54077034	      2.26488450	     -4.68263460	    -15.07251647	      3.90956376	     11.51451624	      0.00000000	    -61.60619759	     -1.53047251	     -0.69482282
      5.44000000	     36.83542578	      1.05962651	     -0.28495097	      0.67742659	      0.65931539	     -0.26758917	    -48.35033866	     -0.96270361	     -6.56185859	    -33.07854264	      7.42405106	     21.36824627	      0.00000000	    -14.86769745	      2.58273704	     -3.88490381	    -15.73069997	      4.01570134	     10.58140624	      0.00000000	    -61.59144244	     -1.64413776	     -0.76528479
      5.44500000	     36.91291135	      1.17299802	     -0.34030428	      0.68358509	      0.65995709	     -0.26809817	    -47.60505775	     -1.46320344	     -7.18693091	    -35.10218604	      5.06479282	     21.32272804	      0.00000000	    -15.21791858	      2.89348341	     -3.17891937	    -16.35287247	      4.22093175	      9.74018196	      0.00000000	    -61.57688024	     -1.76206867	     -0.83831151
      5.45000000	     36.89080989	      1.29770468	     -0.29460090	      0.68975027	      0.66050277	     -0.26873871	    -46.71507466	     -1.93125698	     -7.91877471	    -37.14065285	      2.71053340	     21.11694666	      0.00000000	    -15.43239959	      3.19305098	     -2.39676558	    -17.03787102	      4.62328587	      8.91769902	      0.00000000	    -61.45299578	     -1.78878316	     -1.04162939
      5.45500000	     37.01581213	      1.41831078	     -0.38840139	      0.69579062	      0.66118399	     -0.26923602	    -45.90931523	     -2.49872074	     -8.50540473	    -39.19724630	      0.33105667	     20.62395380	      0.00000000	    -15.88942006	      3.50229727	     -1.94806212	    -17.56162062	      4.95479994	      8.29331698	      0.00000000	    -61.50533291	     -1.92687861	     -1.06275820
      5.46000000	     37.06861242	      1.52137717	     -0.42738076	      0.70182763	      0.66178530	     -0.26982329	    -44.99230565	     -3.02575940	     -9.08433223	    -41.24469417	     -1.93749778	     19.92994355	      0.00000000	    -16.26023777	      3.78226725	     -1.44154446	    -18.11433410	      5.48487093	      7.68589142	      0.00000000	    -61.47436779	     -1.99960549	     -1.14683659
      5.46500000	     37.15183305	      1.65543125	     -0.47563583	      0.70779073	      0.66241031	     -0.27039876	    -44.08400167	     -3.60653601	     -9.70879521	    -43.26342418	     -4.06161988	     19.06019451	      0.00000000	    -16.70241488	      4.07137412	     -1.14988344	    -18.58141471	      5.99003297	      7.23325541	      0.00000000	    -61.48961169	     -2.09054169	     -1.24180432
      5.47000000	     37.21998677	      1.78549954	     -0.51023874	      0.71371593	      0.66300747	     -0.27097731	    -43.13895566	     -4.16939209	    -10.27961302	    -45.24407727	     -5.96769557	     18.01206038	      0.00000000	    -17.14494740	      4.33980709	     -0.88531757	    -19.02052609	      6.59395762	      6.87946875	      0.00000000	    -61.48638491	     -2.16418168	     -1.35577874
      5.47500000	     37.26820276	      1.91286036	     -0.52489568	      0.71956598	      0.66357724	     -0.27158109	    -42.15201147	     -4.71547725	    -10.82205027	    -47.18901430	     -7.60025422	     16.80343306	      0.00000000	    -17.58088834	      4.58538900	     -0.68569433	    -19.42191081	      7.24554313	      6.63797772	      0.00000000	    -61.47777360	     -2.21614722	     -1.48608948
      5.48000000	     37.30989192	      2.04419098	     -0.52975125	      0.72535704	      0.66414151	     -0.27217461	    -41.15158540	     -5.25226470	    -11.33409681	    -49.07438004	     -8.92097241	     15.50147021	      0.00000000	    -18.03668270	      4.81350994	     -0.55612117	    -19.76363041	      7.92339111	      6.50644340	      0.00000000	    -61.46770738	     -2.25966888	     -1.63594934
      5.48500000	     37.23479488	      2.10580481	     -0.48479903	      0.73103721	      0.66462839	     -0.27280087	    -39.98424330	     -5.67654761	    -11.74546998	    -50.93600744	     -9.91667104	     14.12001442	      0.00000000	    -18.34757633	      4.93658176	     -0.44908641	    -20.12813264	      8.71096530	      6.54349063	      0.00000000	    -61.35794126	     -2.21414256	     -1.73405851
      5.49000000	     37.29945583	      2.25850149	     -0.47059562	      0.73667711	      0.66521239	     -0.27336874	    -39.00653191	     -6.19015137	    -12.18765500	    -52.68347974	    -10.56051628	     12.72210345	      0.00000000	    -18.88129092	      5.14770446	     -0.41020176	    -20.34089309	      9.32602177	      6.57937737	      0.00000000	    -61.39595915	     -2.25281958	     -1.92823246
